<svg xmlns="http://www.w3.org/2000/svg" version="1.1" xmlns:xlink="http://www.w3.org/1999/xlink" xmlns:svgjs="http://svgjs.dev/svgjs" width="1500" height="212" viewBox="0 0 1500 212"><g transform="matrix(1,0,0,1,-0.9090909090909918,-1.6433817355467397)"><svg viewBox="0 0 396 56" data-background-color="#ffffff" preserveAspectRatio="xMidYMid meet" height="212" width="1500" xmlns="http://www.w3.org/2000/svg" xmlns:xlink="http://www.w3.org/1999/xlink"><g id="tight-bounds" transform="matrix(1,0,0,1,0.2400000000000091,0.43410083580479863)"><svg viewBox="0 0 395.52 55.1317983283904" height="55.1317983283904" width="395.52"><g><svg viewBox="0 0 395.52 55.1317983283904" height="55.1317983283904" width="395.52"><g><svg viewBox="0 0 395.52 55.1317983283904" height="55.1317983283904" width="395.52"><g id="textblocktransform"><svg viewBox="0 0 395.52 55.1317983283904" height="55.1317983283904" width="395.52" id="textblock"><g><svg viewBox="0 0 395.52 55.1317983283904" height="55.1317983283904" width="395.52"><g transform="matrix(1,0,0,1,0,0)"><svg width="395.52" viewBox="1.9 -25.25 185.98999999999998 25.85" height="55.1317983283904" data-palette-color="#336a86"><g class="wordmark-text-0" data-fill-palette-color="primary" id="text-0"><path d="M10.45 0.6L10.45 0.6Q8.1 0.6 6.15-0.25 4.2-1.1 3.05-2.7 1.9-4.3 1.9-6.55L1.9-6.55Q1.9-9.5 3.98-11.2 6.05-12.9 9.83-13.83 13.6-14.75 18.65-15.3L18.65-15.3Q18.75-18.45 17.4-20.15 16.05-21.85 13.05-21.85L13.05-21.85Q10.8-21.85 9.38-20.83 7.95-19.8 7.55-18L7.55-18 3.5-19.2Q4.5-22.05 7.08-23.63 9.65-25.2 13-25.2L13-25.2Q18.15-25.2 20.53-22.78 22.9-20.35 22.9-15.15L22.9-15.15 22.9-9.35Q22.9-6.25 23.15-4 23.4-1.75 23.75 0L23.75 0 19.9 0 18.9-3.4Q17.8-1.55 15.75-0.48 13.7 0.6 10.45 0.6ZM11.35-2.75L11.35-2.75Q13.3-2.75 15.05-3.45 16.8-4.15 17.9-5.83 19-7.5 19-10.4L19-10.4 19-11.95Q15.2-11.55 12.4-10.98 9.6-10.4 8.08-9.38 6.55-8.35 6.55-6.65L6.55-6.65Q6.55-4.9 7.83-3.83 9.1-2.75 11.35-2.75ZM39.75 0.6L39.75 0.6Q36.2 0.6 33.6-1.07 31-2.75 29.6-5.65 28.2-8.55 28.2-12.3L28.2-12.3Q28.2-16 29.67-18.93 31.15-21.85 33.85-23.53 36.55-25.2 40.2-25.2L40.2-25.2Q43.55-25.2 45.95-23.55 48.35-21.9 49.55-19.6L49.55-19.6 45.7-18.2Q44.9-19.7 43.35-20.6 41.8-21.5 39.9-21.5L39.9-21.5Q38.05-21.5 36.4-20.53 34.75-19.55 33.75-17.53 32.75-15.5 32.75-12.35L32.75-12.35Q32.75-9.25 33.77-7.18 34.8-5.1 36.42-4.1 38.05-3.1 39.9-3.1L39.9-3.1Q41.95-3.1 43.47-4.03 45-4.95 45.8-6.35L45.8-6.35 49.65-4.95Q48.25-2.55 45.65-0.98 43.05 0.6 39.75 0.6ZM65.09 0.6L65.09 0.6Q62.95 0.6 60.84-0.15 58.75-0.9 57.02-2.48 55.3-4.05 54.25-6.5 53.2-8.95 53.2-12.3L53.2-12.3Q53.2-15.65 54.25-18.1 55.3-20.55 57.02-22.13 58.75-23.7 60.84-24.45 62.95-25.2 65.09-25.2L65.09-25.2Q67.25-25.2 69.37-24.45 71.5-23.7 73.22-22.13 74.95-20.55 75.97-18.1 77-15.65 77-12.3L77-12.3Q77-8.95 75.97-6.5 74.95-4.05 73.22-2.48 71.5-0.9 69.37-0.15 67.25 0.6 65.09 0.6ZM65.09-3.1L65.09-3.1Q66.9-3.1 68.59-4.08 70.3-5.05 71.4-7.08 72.5-9.1 72.5-12.3L72.5-12.3Q72.5-15.5 71.4-17.53 70.3-19.55 68.59-20.53 66.9-21.5 65.09-21.5L65.09-21.5Q63.34-21.5 61.62-20.53 59.9-19.55 58.8-17.53 57.7-15.5 57.7-12.3L57.7-12.3Q57.7-9.1 58.8-7.08 59.9-5.05 61.62-4.08 63.34-3.1 65.09-3.1ZM86.59 0L82.39 0 82.39-24.8 85.49-24.8 86.59-21.05Q87.64-22.8 89.54-24 91.44-25.2 94.59-25.2L94.59-25.2Q99.09-25.2 100.94-22.58 102.79-19.95 102.79-15.7L102.79-15.7 102.79 0 98.59 0 98.59-14.45Q98.59-16.35 98.24-17.98 97.89-19.6 96.72-20.6 95.54-21.6 93.14-21.6L93.14-21.6Q90.09-21.6 88.34-19.53 86.59-17.45 86.59-13.45L86.59-13.45 86.59 0ZM120.24 0.6L120.24 0.6Q116.34 0.6 113.64-1.13 110.94-2.85 109.52-5.78 108.09-8.7 108.09-12.35L108.09-12.35Q108.09-16.3 109.69-19.18 111.29-22.05 114.02-23.63 116.74-25.2 120.14-25.2L120.14-25.2Q123.09-25.2 125.34-24.03 127.59-22.85 129.06-20.88 130.54-18.9 131.22-16.4 131.89-13.9 131.69-11.25L131.69-11.25 112.59-11.25Q112.69-8.15 113.97-6.35 115.24-4.55 116.99-3.83 118.74-3.1 120.24-3.1L120.24-3.1Q122.34-3.1 123.77-3.78 125.19-4.45 126.04-5.55L126.04-5.55 130.09-4.35Q128.74-2.2 126.24-0.8 123.74 0.6 120.24 0.6ZM112.64-14.6L112.64-14.6 127.24-14.6Q127.24-16.35 126.37-17.95 125.49-19.55 123.92-20.58 122.34-21.6 120.14-21.6L120.14-21.6Q118.29-21.6 116.64-20.9 114.99-20.2 113.92-18.65 112.84-17.1 112.64-14.6ZM144.09 0L140.29 0 133.14-24.8 137.64-24.8 142.39-6.45 147.34-24.8 151.69-24.8 156.59-6.45 161.34-24.8 165.84-24.8 158.74 0 154.89 0 149.49-19.95 144.09 0ZM177.79 0.6L177.79 0.6Q175.64 0.6 173.56-0.08 171.49-0.75 169.86-2.13 168.24-3.5 167.39-5.6L167.39-5.6 171.44-7.1Q171.99-4.9 173.86-3.93 175.74-2.95 177.79-2.95L177.79-2.95Q179.29-2.95 180.61-3.4 181.94-3.85 182.79-4.7 183.64-5.55 183.64-6.65L183.64-6.65Q183.64-8.7 182.01-9.55 180.39-10.4 178.14-10.85L178.14-10.85 174.69-11.55Q172.89-11.95 171.34-12.68 169.79-13.4 168.84-14.75 167.89-16.1 167.89-18.35L167.89-18.35Q167.89-20.6 169.29-22.13 170.69-23.65 172.86-24.45 175.04-25.25 177.44-25.25L177.44-25.25Q180.39-25.25 183.01-24.03 185.64-22.8 186.74-20.2L186.74-20.2 182.79-18.75Q182.14-20.25 180.51-20.98 178.89-21.7 177.14-21.7L177.14-21.7Q175.24-21.7 173.69-20.85 172.14-20 172.14-18.4L172.14-18.4Q172.14-16.8 173.46-16.07 174.79-15.35 176.74-14.95L176.74-14.95 179.99-14.3Q181.99-13.9 183.79-13.15 185.59-12.4 186.74-10.93 187.89-9.45 187.89-6.8L187.89-6.8Q187.89-4.45 186.44-2.8 184.99-1.15 182.69-0.28 180.39 0.6 177.79 0.6Z" fill="#336a86" data-fill-palette-color="primary"></path></g></svg></g></svg></g></svg></g></svg></g><g></g></svg></g><defs></defs></svg><rect width="395.52" height="55.1317983283904" fill="none" stroke="none" visibility="hidden"></rect></g></svg></g></svg>